<svg width="36" height="36" viewBox="0 0 36 36" fill="none" xmlns="http://www.w3.org/2000/svg">
<g id="Sparkle">
<path id="Vector" d="M19.5052 24.6792L16.8052 32.0058C16.7253 32.2211 16.5814 32.4068 16.3929 32.5379C16.2043 32.669 15.9802 32.7393 15.7505 32.7393C15.5209 32.7393 15.2967 32.669 15.1082 32.5379C14.9196 32.4068 14.7757 32.2211 14.6958 32.0058L11.9958 24.6792C11.9388 24.5246 11.849 24.3841 11.7324 24.2676C11.6159 24.1511 11.4755 24.0612 11.3208 24.0042L3.99426 21.3042C3.77896 21.2243 3.59328 21.0804 3.46215 20.8919C3.33103 20.7033 3.26074 20.4792 3.26074 20.2495C3.26074 20.0199 3.33103 19.7957 3.46215 19.6072C3.59328 19.4187 3.77896 19.2748 3.99426 19.1948L11.3208 16.4948C11.4755 16.4379 11.6159 16.348 11.7324 16.2315C11.849 16.1149 11.9388 15.9745 11.9958 15.8198L14.6958 8.49328C14.7757 8.27798 14.9196 8.0923 15.1082 7.96117C15.2967 7.83005 15.5209 7.75977 15.7505 7.75977C15.9802 7.75977 16.2043 7.83005 16.3929 7.96117C16.5814 8.0923 16.7253 8.27798 16.8052 8.49328L19.5052 15.8198C19.5622 15.9745 19.652 16.1149 19.7686 16.2315C19.8851 16.348 20.0256 16.4379 20.1802 16.4948L27.5068 19.1948C27.7221 19.2748 27.9077 19.4187 28.0389 19.6072C28.17 19.7957 28.2403 20.0199 28.2403 20.2495C28.2403 20.4792 28.17 20.7033 28.0389 20.8919C27.9077 21.0804 27.7221 21.2243 27.5068 21.3042L20.1802 24.0042C20.0256 24.0612 19.8851 24.1511 19.7686 24.2676C19.652 24.3841 19.5622 24.5246 19.5052 24.6792Z" fill="#FFBA00"/>
<path id="Vector_2" d="M24.75 2.25V9" stroke="#FFBA00" stroke-width="2.25" stroke-linecap="round" stroke-linejoin="round"/>
<path id="Vector_3" d="M28.125 5.625H21.375" stroke="#FFBA00" stroke-width="2.25" stroke-linecap="round" stroke-linejoin="round"/>
<path id="Vector_4" d="M31.5 10.125V14.625" stroke="#FFBA00" stroke-width="2.25" stroke-linecap="round" stroke-linejoin="round"/>
<path id="Vector_5" d="M33.75 12.375H29.25" stroke="#FFBA00" stroke-width="2.25" stroke-linecap="round" stroke-linejoin="round"/>
</g>
</svg>
